<svg width="40" height="40" viewBox="0 0 40 40" fill="none" xmlns="http://www.w3.org/2000/svg">
<rect width="40" height="40" rx="20" fill="white" fill-opacity="0.1"/>
<path d="M29.9702 26.3304C29.9702 26.6904 29.8902 27.0604 29.7202 27.4204C29.5502 27.7804 29.3302 28.1204 29.0402 28.4404C28.5502 28.9805 28.0102 29.3705 27.4002 29.6205C26.8002 29.8705 26.1501 30.0005 25.4501 30.0005C24.4301 30.0005 23.3401 29.7605 22.1901 29.2705C21.04 28.7805 19.89 28.1204 18.75 27.2904C17.5999 26.4504 16.5099 25.5204 15.4699 24.4904C14.4399 23.4503 13.5098 22.3603 12.6798 21.2203C11.8598 20.0802 11.1998 18.9402 10.7198 17.8102C10.2398 16.6702 9.99976 15.5801 9.99976 14.5401C9.99976 13.8601 10.1198 13.2101 10.3598 12.6101C10.5998 12 10.9798 11.44 11.5098 10.94C12.1498 10.31 12.8498 10 13.5898 10C13.8699 10 14.1499 10.06 14.3999 10.18C14.6599 10.3 14.8899 10.48 15.0699 10.74L17.3899 14.0101C17.5699 14.2601 17.6999 14.4901 17.7899 14.7101C17.8799 14.9201 17.9299 15.1301 17.9299 15.3201C17.9299 15.5601 17.8599 15.8001 17.7199 16.0301C17.5899 16.2602 17.3999 16.5002 17.1599 16.7402L16.3999 17.5302C16.2899 17.6402 16.2399 17.7702 16.2399 17.9302C16.2399 18.0102 16.2499 18.0802 16.2699 18.1602C16.2999 18.2402 16.3299 18.3002 16.3499 18.3602C16.5299 18.6902 16.8399 19.1202 17.2799 19.6402C17.7299 20.1602 18.21 20.6903 18.73 21.2203C19.27 21.7503 19.79 22.2403 20.32 22.6903C20.84 23.1303 21.27 23.4303 21.61 23.6103C21.66 23.6303 21.72 23.6603 21.79 23.6903C21.87 23.7203 21.95 23.7303 22.04 23.7303C22.2101 23.7303 22.3401 23.6703 22.4501 23.5603L23.2101 22.8103C23.4601 22.5603 23.7001 22.3703 23.9301 22.2503C24.1601 22.1103 24.3901 22.0403 24.6401 22.0403C24.8301 22.0403 25.0301 22.0803 25.2501 22.1703C25.4701 22.2603 25.7001 22.3903 25.9501 22.5603L29.2602 24.9104C29.5202 25.0904 29.7002 25.3004 29.8102 25.5504C29.9102 25.8004 29.9702 26.0504 29.9702 26.3304Z" stroke="white" stroke-width="2" stroke-miterlimit="10"/>
<path d="M26.4998 16.9991C26.4998 16.3991 26.0298 15.4791 25.3298 14.7291C24.6898 14.039 23.8398 13.499 22.9998 13.499" stroke="white" stroke-width="2" stroke-linecap="round" stroke-linejoin="round"/>
<path d="M30 17.0002C30 13.1301 26.87 10 22.9999 10" stroke="white" stroke-width="2" stroke-linecap="round" stroke-linejoin="round"/>
</svg>
