<svg width="40" height="40" viewBox="0 0 40 40" fill="none" xmlns="http://www.w3.org/2000/svg">
<rect width="40" height="40" rx="20" fill="white" fill-opacity="0.1"/>
<path d="M10.2894 15.7747V25.505C10.2894 27.4051 11.6395 28.1851 13.2795 27.245L15.6296 25.905C16.1396 25.615 16.9896 25.585 17.5196 25.855L22.7698 28.4851C23.2998 28.7451 24.1498 28.7251 24.6598 28.4351L28.99 25.955C29.54 25.635 30 24.855 30 24.215V14.4847C30 12.5846 28.6499 11.8046 27.0099 12.7446L24.6598 14.0847C24.1498 14.3747 23.2998 14.4047 22.7698 14.1347L17.5196 11.5146C16.9896 11.2546 16.1396 11.2746 15.6296 11.5646L11.2995 14.0447C10.7394 14.3647 10.2894 15.1447 10.2894 15.7747Z" stroke="white" stroke-width="2" stroke-linecap="round" stroke-linejoin="round"/>
<path d="M16.5601 11.9956V24.996" stroke="white" stroke-width="2" stroke-linecap="round" stroke-linejoin="round"/>
<path d="M23.7306 14.6138V27.9941" stroke="white" stroke-width="2" stroke-linecap="round" stroke-linejoin="round"/>
</svg>
